# xmcd
#
# Track frame offsets: 
#        150
#        13300
#        25975
#        38200
#        50650
#        64750
#        80725
#        94525
#        111400
#        121525
#        143650
#        156700
#        169250
#        180925
#        190825
#        202250
#        213825
#        223825
#
# Disc length: 3165 seconds
#
# Revision: 12
# Processed by: cddbd v1.5.2PL0 Copyright (c) Steve Scherf et al.
# Submitted via: ExactAudioCopy v1.0b4
#
DISCID=0a0c5b12
DTITLE=Various Artist - Keep On Running 3 - CD 2
DYEAR=1992
DGENRE=Oldies
TTITLE0=Spencer Davis Group - Gimme some loving
TTITLE1=The Small Faces - Itchycoo Park
TTITLE2=The Tremeloes - Here comes my Baby
TTITLE3=Lee Dorsey - Working in a Colamine
TTITLE4=P.P. Arnold - Angel of the Morning
TTITLE5=The Move - Blackberry Way
TTITLE6=The Animals - It's my life
TTITLE7=Blue Cher - Sommertime Blues
TTITLE8=Lovin' Spoolful - Daydream
TTITLE9=Cream - White Room
TTITLE10=John Fred and his Playboy Band - Judy in Disguise (with glasses
TTITLE10=)
TTITLE11=Archies - Sugar, Sugar
TTITLE12=Gary Puckett and the Union Gap - Lady Willpower
TTITLE13=David Garrick - Dear Mrs. Applebee
TTITLE14=Dave Dee, Dozy, Beaky, Mick and Tich - Bend it
TTITLE15=The Tremeloes - Even the bad Times are good
TTITLE16=The Beach Boys - Then I kissed her
TTITLE17=The Walker Brothers - The Sun ain't gonna shine anymore
EXTD=YEAR: 1992
EXTT0=
EXTT1=
EXTT2=
EXTT3=
EXTT4=
EXTT5=
EXTT6=
EXTT7=
EXTT8=
EXTT9=
EXTT10=
EXTT11=
EXTT12=
EXTT13=
EXTT14=
EXTT15=
EXTT16=
EXTT17=
PLAYORDER=
